<?xml version="1.0" encoding="utf-8"?>
<!-- Generator: Adobe Illustrator 15.0.0, SVG Export Plug-In  -->
<!DOCTYPE svg PUBLIC "-//W3C//DTD SVG 1.1//EN" "http://www.w3.org/Graphics/SVG/1.1/DTD/svg11.dtd" [
	<!ENTITY ns_flows "http://ns.adobe.com/Flows/1.0/">
]>
<svg version="1.1"
	 xmlns="http://www.w3.org/2000/svg" xmlns:xlink="http://www.w3.org/1999/xlink" xmlns:a="http://ns.adobe.com/AdobeSVGViewerExtensions/3.0/"
	 x="0px" y="0px" width="177px" height="59px" viewBox="32.183 28.683 177 59"
	 overflow="visible" enable-background="new 32.183 28.683 177 59" xml:space="preserve">
<defs>
</defs>
<g>
	<defs>
		<rect id="SVGID_1_" width="238.255" height="116.324"/>
	</defs>
	<clipPath id="SVGID_2_">
		<use xlink:href="#SVGID_1_"  overflow="visible"/>
	</clipPath>
	<path clip-path="url(#SVGID_2_)" fill="#FED900" d="M90.608,82.146c0,2.89-2.365,5.255-5.256,5.255H38.056
		c-2.891,0-5.255-2.365-5.255-5.255V34.849c0-2.891,2.365-5.255,5.255-5.255h47.296c2.891,0,5.256,2.365,5.256,5.255V82.146z"/>
	<path clip-path="url(#SVGID_2_)" d="M56.783,47.671c-0.458,0.034-0.633,0.199-1.029,0.807
		c-2.651,4.046-10.113,15.485-11.306,17.388c-0.99,1.583-1.371,2.853-1.053,4.11c0.27,1.177,1.182,1.998,2.613,2.309
		c0.362,0.037,0.711-0.069,0.952-0.371c1.933-2.387,12.767-16.925,14.796-19.65c0.277-0.371,0.208-0.523,0.055-0.838
		c-0.376-0.765-1.788-2.317-2.91-3.047c-0.75-0.488-1.484-0.713-1.99-0.713C56.866,47.664,56.824,47.667,56.783,47.671"/>
	<path clip-path="url(#SVGID_2_)" d="M81.555,71.319c-2.258-4.838-13.207-27.432-15.578-32.638
		c-1.224-2.686-2.505-6.042-3.645-9.088H48.711c0.199,4.6,0.261,6.924-0.478,9.098c-1.304,3.82-5.529,7.827-8.453,10.925
		c-1.008,1.063,3.09,3.938,7.428,0.542c1.573-1.235,4.059-3.669,6.078-5.25c0.912-0.721,2.093-1.058,3.296-0.88
		c1.667,0.242,2.812,1.012,3.979,2.412c1.184,1.418,2.303,3.34,3.829,5.834c2.878,4.707,6.112,10.033,9.579,15.537
		c1.763,2.801,4.113,3.975,7.332,3.896C81.611,71.7,81.655,71.524,81.555,71.319"/>
	<path clip-path="url(#SVGID_2_)" d="M134.689,36.382c0.667-1.025,1.503-1.538,2.506-1.538c1.001,0,1.767,0.291,2.3,0.868
		c0.537,0.579,0.803,1.248,0.803,2.004c0,0.757-0.178,1.423-0.533,2.002l-16.021,22.363v17.021c0,0.846-0.292,1.56-0.867,2.137
		c-0.578,0.579-1.292,0.866-2.138,0.866c-0.844,0-1.569-0.287-2.169-0.866c-0.601-0.577-0.9-1.291-0.9-2.137V62.081l-15.954-22.363
		c-0.359-0.579-0.535-1.245-0.535-2.002c0-0.756,0.269-1.425,0.801-2.004c0.535-0.578,1.302-0.868,2.304-0.868
		c1,0,1.836,0.513,2.502,1.538l13.951,20.29L134.689,36.382z"/>
	<path clip-path="url(#SVGID_2_)" d="M143.692,74.097c1.912,1.78,4.582,2.668,8.01,2.668c3.426,0,6.298-0.576,8.613-1.734
		c0.8-0.402,1.488-0.601,2.068-0.601c0.578,0,1.134,0.244,1.668,0.733c0.533,0.49,0.801,1.047,0.801,1.668
		c0,1.159-0.48,1.994-1.432,2.505c-0.961,0.511-1.816,0.944-2.573,1.301c-0.761,0.356-1.579,0.667-2.468,0.935
		c-2.004,0.576-4.318,0.867-6.943,0.867c-5.476,0-9.725-1.535-12.748-4.605c-3.029-3.069-4.54-7.431-4.54-13.085
		c0-4.894,1.269-8.965,3.802-12.213c2.851-3.649,6.9-5.474,12.15-5.474c4.984,0,8.924,1.693,11.817,5.072
		c2.713,3.162,4.071,7.076,4.071,11.751c0,0.844-0.281,1.558-0.836,2.133c-0.558,0.581-1.304,0.871-2.236,0.871h-22.63
		C140.644,69.911,141.779,72.315,143.692,74.097 M150.101,52.199c-3.961,0-6.853,1.759-8.678,5.274
		c-0.668,1.246-1.045,2.736-1.136,4.473h19.691c-0.177-3.159-1.333-5.65-3.47-7.477C154.728,52.957,152.594,52.199,150.101,52.199"
		/>
	<path clip-path="url(#SVGID_2_)" d="M172.571,33.577c0.578-0.578,1.305-0.867,2.17-0.867c0.869,0,1.59,0.29,2.17,0.867
		c0.578,0.578,0.871,1.313,0.871,2.204v43.321c0,0.846-0.293,1.56-0.871,2.137c-0.58,0.579-1.301,0.866-2.17,0.866
		c-0.865,0-1.592-0.287-2.17-0.866c-0.576-0.577-0.867-1.291-0.867-2.137V35.78C171.704,34.89,171.995,34.155,172.571,33.577"/>
	<path clip-path="url(#SVGID_2_)" d="M185.603,33.577c0.58-0.578,1.303-0.867,2.173-0.867c0.866,0,1.589,0.29,2.168,0.867
		c0.577,0.578,0.869,1.313,0.869,2.204v43.321c0,0.846-0.292,1.56-0.869,2.137c-0.579,0.579-1.302,0.866-2.168,0.866
		c-0.87,0-1.593-0.287-2.173-0.866c-0.575-0.577-0.869-1.291-0.869-2.137V35.78C184.733,34.89,185.027,34.155,185.603,33.577"/>
	<path clip-path="url(#SVGID_2_)" d="M38.022,76.75l0.001,0.153c0.021,2.802,2.347,5.224,5.148,5.224h36.938
		c2.873,0,5.223-2.433,5.243-5.235l0.001-0.142H38.022z"/>
	<path clip-path="url(#SVGID_2_)" d="M202.02,77.104c0.062,0.062,0.093,0.138,0.093,0.227s-0.031,0.163-0.093,0.223
		c-0.062,0.059-0.138,0.089-0.226,0.089h-1.505v4.246c0,0.094-0.033,0.173-0.1,0.237c-0.067,0.064-0.147,0.096-0.241,0.096
		s-0.173-0.031-0.237-0.096c-0.063-0.064-0.097-0.144-0.097-0.237v-4.246h-1.512c-0.088,0-0.162-0.03-0.222-0.089
		c-0.06-0.06-0.089-0.134-0.089-0.223s0.029-0.164,0.089-0.227c0.06-0.061,0.134-0.092,0.222-0.092h3.691
		C201.882,77.013,201.958,77.044,202.02,77.104"/>
	<path clip-path="url(#SVGID_2_)" d="M208.515,77.12c0.094,0.096,0.141,0.211,0.141,0.345v4.424c0,0.094-0.032,0.173-0.096,0.237
		c-0.064,0.064-0.144,0.096-0.237,0.096c-0.095,0-0.175-0.031-0.241-0.096s-0.1-0.144-0.1-0.237v-4.21l-1.712,4.232
		c-0.04,0.094-0.102,0.169-0.186,0.227c-0.084,0.056-0.181,0.084-0.289,0.084s-0.205-0.028-0.289-0.084
		c-0.084-0.058-0.146-0.133-0.185-0.227l-1.713-4.232v4.21c0,0.094-0.033,0.173-0.1,0.237s-0.146,0.096-0.24,0.096
		c-0.095,0-0.174-0.031-0.237-0.096c-0.064-0.064-0.097-0.144-0.097-0.237v-4.424c0-0.134,0.047-0.249,0.141-0.345
		c0.094-0.097,0.207-0.145,0.341-0.145h0.245c0.099,0,0.188,0.029,0.27,0.089c0.082,0.06,0.143,0.133,0.182,0.222l1.683,4.195
		l1.683-4.195c0.039-0.089,0.1-0.162,0.182-0.222c0.081-0.06,0.171-0.089,0.27-0.089h0.245
		C208.308,76.976,208.421,77.023,208.515,77.12"/>
</g>
</svg>
